<svg width="95" height="41" viewBox="0 0 95 41" fill="none" xmlns="http://www.w3.org/2000/svg">
<path d="M4.79399 35.0401C4.94428 35.1052 5.07265 35.2123 5.16376 35.3484C5.25487 35.4845 5.30488 35.644 5.30781 35.8078V39.851C5.30701 39.887 5.29216 39.9212 5.26643 39.9464C5.24071 39.9715 5.20616 39.9856 5.17018 39.9856H4.17312C4.15609 39.9864 4.13909 39.9835 4.12326 39.9772C4.10744 39.9709 4.09315 39.9612 4.08137 39.9489C4.05728 39.9221 4.04418 39.8871 4.04466 39.851V36.1809H3.24029V39.851C3.24061 39.8862 3.22748 39.9201 3.20359 39.9459C3.19287 39.9597 3.17884 39.9705 3.16281 39.9775C3.14677 39.9844 3.12924 39.9872 3.11184 39.9856H2.1943C2.15861 39.9856 2.12438 39.9714 2.09914 39.9462C2.0739 39.921 2.05973 39.8867 2.05973 39.851V36.1809H1.27064V39.851C1.27501 39.8823 1.26685 39.9139 1.24794 39.9392C1.22903 39.9644 1.2009 39.9811 1.16971 39.9856H0.145131C0.114443 39.9902 0.0831556 39.983 0.0576023 39.9654C0.0320489 39.9478 0.0141395 39.9211 0.00750028 39.8908V35.1074C0.00312995 35.0762 0.0112924 35.0445 0.0302041 35.0193C0.0491158 34.9941 0.0772393 34.9773 0.108429 34.9728H4.46367C4.57739 34.9706 4.6902 34.9936 4.79399 35.0401Z" fill="#242425"/>
<path d="M9.79448 34.972C9.9607 34.971 10.1235 35.0193 10.2623 35.1107C10.4011 35.2022 10.5097 35.3327 10.5744 35.4859C10.6207 35.5877 10.6447 35.6982 10.6447 35.81V39.8533C10.6456 39.8707 10.6429 39.8881 10.6368 39.9044C10.6307 39.9207 10.6214 39.9356 10.6093 39.9481C10.5973 39.9607 10.5829 39.9707 10.5669 39.9776C10.5509 39.9844 10.5337 39.9879 10.5163 39.9879H9.5131C9.47713 39.9879 9.44257 39.9738 9.41685 39.9487C9.39112 39.9235 9.37627 39.8893 9.37547 39.8533V38.5688C9.37694 38.534 9.36488 38.5 9.34183 38.474C9.33013 38.4605 9.3155 38.4499 9.29906 38.443C9.28262 38.4361 9.26481 38.4331 9.24702 38.4342H7.82789C7.79191 38.4342 7.75736 38.4483 7.73164 38.4734C7.70591 38.4986 7.69106 38.5328 7.69026 38.5688V39.8533C7.69287 39.8686 7.6924 39.8843 7.68886 39.8994C7.68533 39.9145 7.67881 39.9287 7.66969 39.9412C7.66057 39.9538 7.64903 39.9644 7.63576 39.9724C7.62248 39.9804 7.60774 39.9857 7.59239 39.9879H6.56781C6.5523 39.991 6.53633 39.9908 6.52087 39.9875C6.50542 39.9842 6.4908 39.9778 6.47792 39.9686C6.46504 39.9594 6.45416 39.9477 6.44595 39.9342C6.43774 39.9207 6.43237 39.9057 6.43018 39.89V35.81C6.42994 35.6988 6.45177 35.5886 6.49441 35.4859C6.53432 35.3814 6.59581 35.2866 6.67485 35.2075C6.7555 35.1305 6.84991 35.0693 6.95317 35.0271C7.05526 34.982 7.16576 34.959 7.27737 34.9598L9.79448 34.972ZM9.36324 37.3607V36.0975H7.68109V37.3576L9.36324 37.3607Z" fill="#242425"/>
<path d="M15.1528 35.0118C15.1664 35.0233 15.1772 35.0379 15.1841 35.0544C15.191 35.0709 15.1939 35.0887 15.1926 35.1066V39.156C15.1933 39.2676 15.1704 39.3781 15.1253 39.4802C15.0825 39.5831 15.0214 39.6774 14.9448 39.7585C14.8675 39.8381 14.7735 39.8997 14.6696 39.9389C14.5657 39.9816 14.4546 40.0034 14.3423 40.0032H12.2014C12.0892 40.0034 11.978 39.9816 11.8741 39.9389C11.7203 39.8744 11.5892 39.7654 11.4976 39.6259C11.4061 39.4864 11.3583 39.3228 11.3603 39.156V37.6267C11.3559 37.5952 11.364 37.5631 11.3828 37.5374C11.4017 37.5117 11.4298 37.4944 11.4612 37.4891H12.4858C12.5173 37.4854 12.5489 37.4938 12.5745 37.5125C12.6 37.5313 12.6175 37.5589 12.6235 37.59V38.6513C12.6226 38.6688 12.6254 38.6863 12.6318 38.7026C12.6381 38.7189 12.6478 38.7338 12.6602 38.7461C12.6873 38.7694 12.7223 38.7814 12.758 38.7798H13.7979C13.8327 38.7812 13.8667 38.7692 13.8927 38.7461C13.9062 38.7344 13.9168 38.7198 13.9237 38.7034C13.9305 38.6869 13.9336 38.6691 13.9325 38.6513V35.1066C13.9322 35.0714 13.9453 35.0375 13.9692 35.0118C13.9807 34.9981 13.9953 34.9874 14.0118 34.9805C14.0283 34.9736 14.0462 34.9707 14.064 34.972H15.061C15.0783 34.9716 15.0955 34.9749 15.1113 34.9818C15.1271 34.9887 15.1413 34.9989 15.1528 35.0118Z" fill="#242425"/>
<path d="M19.6884 34.9721C19.8 34.9713 19.9105 34.9942 20.0126 35.0394C20.1127 35.0803 20.2035 35.1409 20.2797 35.2176C20.3558 35.2943 20.4158 35.3856 20.4561 35.4859C20.5024 35.5877 20.5264 35.6982 20.5264 35.8101V39.1407C20.5261 39.2535 20.5021 39.365 20.4561 39.468C20.4154 39.5704 20.3551 39.6639 20.2787 39.7433C20.2002 39.823 20.1052 39.8846 20.0004 39.9237C19.8982 39.9681 19.7876 39.99 19.6762 39.9879H17.1499C17.0394 39.988 16.93 39.9651 16.8288 39.9206C16.6771 39.8583 16.5473 39.7524 16.4558 39.6163C16.3644 39.4802 16.3153 39.32 16.3149 39.156V35.8254C16.3147 35.7131 16.3365 35.6019 16.3792 35.4981C16.4173 35.3944 16.4779 35.3004 16.5566 35.2229C16.6372 35.1458 16.7316 35.0846 16.8349 35.0424C16.9369 34.997 17.0474 34.9741 17.1591 34.9751L19.6884 34.9721ZM19.2572 36.1954H17.575V38.7768H19.2755L19.2572 36.1954Z" fill="#242425"/>
<path d="M26.0228 39.8748C26.0319 39.8866 26.0369 39.9011 26.0369 39.916C26.0369 39.931 26.0319 39.9455 26.0228 39.9573C26.0142 39.9692 26.0025 39.9786 25.9891 39.9845C25.9757 39.9905 25.9609 39.9927 25.9463 39.991H24.8086C24.7684 39.9906 24.7292 39.9789 24.6954 39.9573C24.659 39.9383 24.6283 39.9097 24.6067 39.8748L23.8635 38.5137C23.8586 38.5044 23.8511 38.4968 23.8418 38.4919C23.8325 38.487 23.8219 38.485 23.8115 38.4862H22.946C22.9419 38.4853 22.9378 38.4853 22.9337 38.486C22.9297 38.4868 22.9258 38.4884 22.9224 38.4906C22.919 38.4929 22.916 38.4959 22.9138 38.4993C22.9115 38.5028 22.91 38.5066 22.9093 38.5107V39.8442C22.9114 39.8597 22.9104 39.8755 22.9062 39.8906C22.9021 39.9057 22.895 39.9198 22.8853 39.9321C22.8756 39.9444 22.8635 39.9546 22.8497 39.9621C22.836 39.9696 22.8209 39.9742 22.8053 39.9757H21.7868C21.756 39.9801 21.7248 39.9724 21.6996 39.9541C21.6745 39.9358 21.6575 39.9084 21.6522 39.8778C21.6491 39.8658 21.6491 39.8532 21.6522 39.8411V35.1066C21.6496 35.0913 21.6501 35.0757 21.6536 35.0606C21.6572 35.0455 21.6637 35.0313 21.6728 35.0187C21.6819 35.0062 21.6935 34.9956 21.7067 34.9876C21.72 34.9796 21.7348 34.9743 21.7501 34.9721H25.0288C25.1403 34.9717 25.2508 34.9946 25.353 35.0393C25.5525 35.126 25.7112 35.2858 25.7964 35.4859C25.8415 35.588 25.8645 35.6985 25.8637 35.8101V37.6941C25.8648 37.8715 25.8079 38.0444 25.7016 38.1865C25.602 38.3316 25.4566 38.4393 25.2887 38.4923H25.2673C25.2337 38.4923 25.2245 38.5168 25.2429 38.5352L26.0228 39.8748ZM24.5975 36.1404H22.8695V37.3638H24.5975V36.1404Z" fill="#242425"/>
<path d="M32.7696 38.7706C32.7871 38.7694 32.8047 38.772 32.8211 38.7784C32.8375 38.7847 32.8523 38.7946 32.8644 38.8073C32.8885 38.8342 32.9016 38.8691 32.9011 38.9052V39.8533C32.9014 39.8885 32.8883 39.9224 32.8644 39.9481C32.8529 39.9618 32.8382 39.9725 32.8218 39.9794C32.8053 39.9863 32.7874 39.9892 32.7696 39.9879H29.6744C29.6433 39.9924 29.6116 39.9848 29.586 39.9665C29.5604 39.9483 29.5428 39.9209 29.5368 39.89V35.1066C29.5324 35.0754 29.5406 35.0437 29.5595 35.0185C29.5784 34.9933 29.6065 34.9766 29.6377 34.972H30.6623C30.6935 34.9677 30.7252 34.9758 30.7504 34.9947C30.7756 35.0137 30.7923 35.0418 30.7969 35.073C30.8 35.084 30.8 35.0956 30.7969 35.1066V38.6422C30.7962 38.6599 30.7995 38.6776 30.8063 38.694C30.8132 38.7103 30.8235 38.725 30.8366 38.737C30.8635 38.7611 30.8984 38.7742 30.9345 38.7737L32.7696 38.7706Z" fill="#242425"/>
<path d="M37.4061 35.0118C37.4193 35.0238 37.4296 35.0385 37.4365 35.0548C37.4433 35.0712 37.4466 35.0889 37.4459 35.1066V36.0089C37.4472 36.0267 37.4443 36.0446 37.4374 36.061C37.4305 36.0775 37.4198 36.0921 37.4061 36.1037C37.3804 36.1276 37.3465 36.1407 37.3113 36.1404H34.9074C34.9035 36.1395 34.8995 36.1394 34.8957 36.1402C34.8918 36.141 34.8882 36.1426 34.885 36.1449C34.8818 36.1472 34.8791 36.1502 34.8772 36.1537C34.8753 36.1571 34.8741 36.1609 34.8737 36.1648V36.9448C34.8737 36.9631 34.8737 36.9723 34.9074 36.9723H36.9565C36.9739 36.9714 36.9911 36.9746 37.0071 36.9815C37.023 36.9884 37.0371 36.9988 37.0483 37.012C37.0722 37.0378 37.0853 37.0717 37.085 37.1069V37.8256C37.0853 37.8607 37.0722 37.8946 37.0483 37.9204C37.0371 37.9336 37.023 37.9441 37.0071 37.951C36.9911 37.9579 36.9739 37.961 36.9565 37.9602H34.9074C34.8997 37.9592 34.892 37.9613 34.8858 37.9658C34.8795 37.9703 34.8752 37.9771 34.8737 37.9846V38.7584C34.8723 38.7622 34.8718 38.7663 34.8721 38.7703C34.8725 38.7744 34.8737 38.7783 34.8758 38.7818C34.8778 38.7853 34.8806 38.7883 34.884 38.7906C34.8873 38.7929 34.8911 38.7945 34.8951 38.7951H37.3205C37.3557 38.7951 37.3894 38.8089 37.4146 38.8334C37.4397 38.858 37.4543 38.8915 37.4551 38.9266V39.8442C37.4555 39.8617 37.4524 39.8791 37.446 39.8954C37.4395 39.9117 37.4299 39.9266 37.4177 39.9391C37.4054 39.9517 37.3908 39.9616 37.3746 39.9684C37.3584 39.9752 37.3411 39.9787 37.3236 39.9787H33.7482C33.7171 39.9832 33.6854 39.9756 33.6598 39.9574C33.6342 39.9391 33.6166 39.9117 33.6106 39.8809V35.1066C33.6114 35.0706 33.6262 35.0364 33.652 35.0113C33.6777 34.9861 33.7122 34.972 33.7482 34.972H37.3205C37.3531 34.9739 37.3837 34.9882 37.4061 35.0118Z" fill="#242425"/>
<path d="M41.9541 34.972C42.0668 34.971 42.1783 34.994 42.2814 35.0393C42.4831 35.1221 42.6437 35.2816 42.7279 35.4828C42.7733 35.5848 42.7963 35.6954 42.7952 35.807V39.8503C42.7961 39.8677 42.7933 39.885 42.7873 39.9013C42.7812 39.9176 42.7718 39.9325 42.7598 39.9451C42.7478 39.9577 42.7334 39.9677 42.7174 39.9745C42.7014 39.9814 42.6842 39.9849 42.6668 39.9849H41.6544C41.6187 39.9849 41.5845 39.9707 41.5593 39.9454C41.534 39.9202 41.5198 39.886 41.5198 39.8503V38.5657C41.5202 38.5306 41.507 38.4967 41.4831 38.4709C41.4716 38.4573 41.457 38.4466 41.4405 38.4397C41.424 38.4327 41.4062 38.4298 41.3883 38.4312H39.9906C39.9546 38.4312 39.9201 38.4452 39.8944 38.4704C39.8686 38.4955 39.8538 38.5298 39.853 38.5657V39.8503C39.8574 39.8815 39.8492 39.9132 39.8303 39.9384C39.8114 39.9636 39.7833 39.9803 39.7521 39.9849H38.7275C38.7122 39.9875 38.6965 39.987 38.6814 39.9835C38.6663 39.9799 38.6521 39.9734 38.6396 39.9643C38.627 39.9552 38.6164 39.9436 38.6084 39.9304C38.6004 39.9171 38.5951 39.9023 38.5929 39.887C38.5898 39.875 38.5898 39.8623 38.5929 39.8503V35.8101C38.5927 35.6988 38.6145 35.5886 38.6571 35.4859C38.6971 35.3814 38.7585 35.2866 38.8376 35.2075C38.9182 35.1305 39.0126 35.0693 39.1159 35.0271C39.2179 34.9817 39.3285 34.9588 39.4401 34.9598L41.9541 34.972ZM41.526 37.3607V36.0976H39.8408V37.3576L41.526 37.3607Z" fill="#242425"/>
<path d="M48.0862 37.2903C48.099 37.3031 48.1089 37.3184 48.1152 37.3353C48.1216 37.3522 48.1242 37.3702 48.1229 37.3882V39.156C48.1237 39.2676 48.1007 39.3781 48.0556 39.4802C48.0126 39.5823 47.9526 39.6764 47.8782 39.7585C47.7992 39.8376 47.7043 39.899 47.5999 39.939C47.4971 39.9814 47.3869 40.0032 47.2757 40.0032H44.7372C44.627 40.0036 44.5179 39.9822 44.416 39.9402C44.3142 39.8983 44.2216 39.8365 44.1437 39.7586C44.0658 39.6807 44.0041 39.5882 43.9621 39.4863C43.9202 39.3845 43.8988 39.2753 43.8992 39.1652V35.8315C43.8992 35.7202 43.921 35.6101 43.9634 35.5073C44.001 35.4024 44.0616 35.3073 44.1408 35.2289C44.2209 35.1527 44.3142 35.0916 44.4161 35.0485C44.5197 35.0049 44.6309 34.982 44.7433 34.9812H47.7192C47.7557 34.9812 47.7907 34.9957 47.8165 35.0215C47.8423 35.0473 47.8568 35.0823 47.8568 35.1188V36.0639C47.8568 36.1004 47.8423 36.1354 47.8165 36.1612C47.7907 36.187 47.7557 36.2015 47.7192 36.2015H45.3183C45.2822 36.201 45.2473 36.2141 45.2204 36.2382C45.1952 36.2633 45.1809 36.2974 45.1807 36.333V38.6544C45.1808 38.6716 45.1844 38.6886 45.1913 38.7043C45.1981 38.7201 45.208 38.7343 45.2204 38.7462C45.2334 38.7586 45.2487 38.7683 45.2656 38.7747C45.2824 38.781 45.3003 38.7838 45.3183 38.7829H46.7374C46.7535 38.7837 46.7696 38.7813 46.7847 38.7759C46.7999 38.7705 46.8138 38.7622 46.8258 38.7514C46.8377 38.7406 46.8474 38.7276 46.8543 38.713C46.8612 38.6985 46.8651 38.6827 46.8659 38.6666V37.4004C46.8651 37.3831 46.8678 37.3657 46.8738 37.3494C46.8799 37.3331 46.8893 37.3182 46.9013 37.3056C46.9133 37.293 46.9277 37.283 46.9437 37.2762C46.9597 37.2694 46.9769 37.2658 46.9943 37.2659H47.9975C48.0291 37.2631 48.0606 37.2718 48.0862 37.2903Z" fill="#242425"/>
<path d="M53.3743 35.0117C53.3996 35.0368 53.4139 35.0709 53.4141 35.1066V39.156C53.4138 39.2678 53.3898 39.3783 53.3438 39.4801C53.3019 39.5829 53.2418 39.6772 53.1664 39.7585C53.0873 39.8375 52.9925 39.899 52.8881 39.9389C52.7842 39.9816 52.673 40.0034 52.5608 40.0031H50.0223C49.9111 40.0031 49.8009 39.9813 49.6981 39.9389C49.4957 39.8544 49.3344 39.6942 49.2485 39.4924C49.2058 39.3886 49.184 39.2774 49.1843 39.1651V35.1066C49.1799 35.0753 49.1881 35.0437 49.207 35.0184C49.2259 34.9932 49.254 34.9765 49.2852 34.972H50.3098C50.341 34.9676 50.3727 34.9758 50.3979 34.9947C50.4231 35.0136 50.4398 35.0417 50.4443 35.0729C50.4475 35.0839 50.4475 35.0956 50.4443 35.1066V38.6421C50.4437 38.6599 50.4469 38.6775 50.4538 38.6939C50.4606 38.7103 50.471 38.725 50.4841 38.7369C50.511 38.761 50.5459 38.7741 50.582 38.7736H52.0011C52.0181 38.7739 52.0349 38.7708 52.0506 38.7645C52.0664 38.7582 52.0807 38.7488 52.0929 38.7369C52.1059 38.7251 52.1161 38.7104 52.1225 38.6939C52.1288 38.6774 52.1313 38.6597 52.1296 38.6421V35.1066C52.1304 35.0706 52.1452 35.0364 52.1709 35.0112C52.1967 34.9861 52.2312 34.972 52.2672 34.972H53.2642C53.2845 34.9686 53.3052 34.9705 53.3245 34.9774C53.3438 34.9844 53.361 34.9962 53.3743 35.0117Z" fill="#242425"/>
<path d="M58.3413 35.0118C58.3666 35.0369 58.3809 35.071 58.3811 35.1066V36.0088C58.3817 36.0266 58.3785 36.0442 58.3717 36.0606C58.3648 36.077 58.3544 36.0917 58.3413 36.1036C58.3145 36.1277 58.2795 36.1408 58.2435 36.1403H55.8426C55.8385 36.1395 55.8344 36.1394 55.8303 36.1402C55.8263 36.1409 55.8224 36.1425 55.819 36.1448C55.8156 36.147 55.8127 36.15 55.8104 36.1534C55.8081 36.1569 55.8066 36.1608 55.8059 36.1648V36.957C55.8059 36.9753 55.8059 36.9845 55.8426 36.9845H57.8917C57.909 36.9841 57.9261 36.9874 57.942 36.9943C57.9578 37.0011 57.972 37.0114 57.9835 37.0242C58.0074 37.05 58.0205 37.0839 58.0202 37.1191V37.8378C58.0205 37.8729 58.0074 37.9068 57.9835 37.9326C57.972 37.9455 57.9578 37.9557 57.942 37.9626C57.9261 37.9694 57.909 37.9728 57.8917 37.9724H55.8426C55.8345 37.9713 55.8264 37.9732 55.8197 37.9777C55.8129 37.9822 55.808 37.989 55.8059 37.9968V38.7829C55.805 38.7869 55.8049 38.791 55.8057 38.7951C55.8064 38.7991 55.808 38.803 55.8103 38.8064C55.8126 38.8098 55.8155 38.8128 55.819 38.815C55.8224 38.8173 55.8263 38.8188 55.8303 38.8196H58.2435C58.2789 38.8195 58.313 38.8332 58.3387 38.8577C58.3643 38.8822 58.3795 38.9156 58.3811 38.9511V39.8686C58.3811 39.9038 58.3673 39.9375 58.3428 39.9627C58.3182 39.9879 58.2847 40.0024 58.2496 40.0032H54.6834C54.668 40.0058 54.6521 40.0054 54.6368 40.0019C54.6215 39.9984 54.6071 39.9919 54.5943 39.9828C54.5815 39.9737 54.5706 39.9622 54.5623 39.9489C54.554 39.9356 54.5484 39.9208 54.5458 39.9053C54.5427 39.8933 54.5427 39.8806 54.5458 39.8686V35.1066C54.5466 35.0706 54.5614 35.0364 54.5872 35.0112C54.6129 34.9861 54.6474 34.972 54.6834 34.972H58.2435C58.2617 34.9713 58.2798 34.9745 58.2967 34.9814C58.3135 34.9882 58.3288 34.9986 58.3413 35.0118Z" fill="#242425"/>
<path d="M66.0333 34.9721C66.0506 34.9712 66.068 34.9739 66.0843 34.98C66.1006 34.9861 66.1155 34.9954 66.1281 35.0074C66.1407 35.0195 66.1507 35.0339 66.1575 35.0499C66.1643 35.0659 66.1679 35.0831 66.1678 35.1005V39.8534C66.1682 39.8709 66.1651 39.8883 66.1587 39.9046C66.1523 39.9209 66.1427 39.9358 66.1304 39.9483C66.1182 39.9609 66.1035 39.9708 66.0874 39.9776C66.0712 39.9844 66.0538 39.9879 66.0363 39.9879H65.0362C65.0002 39.9879 64.9657 39.9739 64.9399 39.9487C64.9142 39.9235 64.8994 39.8893 64.8986 39.8534V38.1865C64.8994 38.1704 64.897 38.1543 64.8916 38.1392C64.8862 38.124 64.8779 38.1101 64.8671 38.0982C64.8563 38.0862 64.8433 38.0765 64.8287 38.0697C64.8142 38.0628 64.7984 38.0588 64.7823 38.058H63.354C63.3179 38.0569 63.2827 38.0701 63.2562 38.0947C63.2425 38.1063 63.2318 38.1209 63.2249 38.1374C63.218 38.1538 63.2151 38.1717 63.2164 38.1895V39.8564C63.2208 39.8876 63.2126 39.9193 63.1937 39.9445C63.1748 39.9697 63.1467 39.9864 63.1155 39.991C63.1045 39.994 63.0929 39.994 63.0818 39.991H62.094C62.0627 39.9954 62.0311 39.9872 62.0059 39.9683C61.9806 39.9494 61.9639 39.9212 61.9594 39.8901C61.9562 39.8791 61.9562 39.8674 61.9594 39.8564V35.1066C61.955 35.0754 61.9632 35.0437 61.9821 35.0185C62.001 34.9933 62.0291 34.9766 62.0603 34.9721H63.0849C63.1161 34.9677 63.1478 34.9758 63.173 34.9948C63.1982 35.0137 63.2149 35.0418 63.2195 35.073C63.2226 35.084 63.2226 35.0956 63.2195 35.1066V36.7093C63.2151 36.7405 63.2233 36.7721 63.2422 36.7974C63.2611 36.8226 63.2892 36.8393 63.3204 36.8438H64.7732C64.7907 36.8451 64.8083 36.8424 64.8247 36.8361C64.8411 36.8297 64.8559 36.8199 64.868 36.8071C64.8921 36.7803 64.9052 36.7453 64.9047 36.7093V35.1036C64.9055 35.0676 64.9203 35.0334 64.9461 35.0082C64.9718 34.9831 65.0063 34.969 65.0423 34.969H66.0363L66.0333 34.9721Z" fill="#242425"/>
<path d="M70.6761 34.9721C70.7887 34.9711 70.9003 34.994 71.0034 35.0394C71.2051 35.1222 71.3657 35.2817 71.4499 35.4828C71.4953 35.5848 71.5182 35.6954 71.5172 35.807V39.8503C71.518 39.8677 71.5153 39.8851 71.5092 39.9014C71.5031 39.9177 71.4938 39.9325 71.4818 39.9451C71.4698 39.9577 71.4553 39.9677 71.4393 39.9746C71.4233 39.9814 71.4061 39.9849 71.3887 39.9849H70.3855C70.3499 39.9849 70.3156 39.9707 70.2904 39.9455C70.2652 39.9202 70.251 39.886 70.251 39.8503V38.5658C70.2513 38.5306 70.2382 38.4967 70.2143 38.471C70.2027 38.4573 70.1881 38.4466 70.1716 38.4397C70.1552 38.4328 70.1373 38.4299 70.1195 38.4312H68.6973C68.6616 38.4312 68.6274 38.4454 68.6021 38.4706C68.5769 38.4958 68.5627 38.5301 68.5627 38.5658V39.8503C68.5671 39.8815 68.5589 39.9132 68.54 39.9384C68.5211 39.9636 68.493 39.9803 68.4618 39.9849H67.4372C67.4217 39.9875 67.4059 39.9871 67.3906 39.9836C67.3753 39.9801 67.3609 39.9736 67.3481 39.9645C67.3353 39.9554 67.3244 39.9439 67.3161 39.9306C67.3078 39.9173 67.3022 39.9025 67.2996 39.887V35.8101C67.2993 35.6988 67.3211 35.5887 67.3638 35.4859C67.4037 35.3815 67.4652 35.2866 67.5442 35.2076C67.6253 35.131 67.7196 35.0699 67.8226 35.0271C67.9248 34.9824 68.0352 34.9595 68.1468 34.9598L70.6761 34.9721ZM70.2479 37.3607V36.0976H68.5627V37.3577L70.2479 37.3607Z" fill="#242425"/>
<path d="M73.9243 36.226C73.9115 36.2381 73.9016 36.2529 73.8953 36.2693C73.8889 36.2857 73.8863 36.3033 73.8876 36.3208V38.6422C73.8863 38.6597 73.8889 38.6773 73.8953 38.6937C73.9016 38.7101 73.9115 38.7249 73.9243 38.737C73.9511 38.7611 73.986 38.7742 74.0221 38.7737H76.3251C76.3425 38.7729 76.3599 38.7756 76.3762 38.7817C76.3925 38.7877 76.4074 38.7971 76.42 38.8091C76.4325 38.8211 76.4426 38.8355 76.4494 38.8515C76.4562 38.8675 76.4597 38.8848 76.4597 38.9022V39.8564C76.4605 39.8738 76.4578 39.8911 76.4517 39.9074C76.4457 39.9237 76.4363 39.9386 76.4243 39.9512C76.4123 39.9638 76.3979 39.9738 76.3819 39.9806C76.3659 39.9875 76.3487 39.991 76.3313 39.991H73.4655C73.3542 39.9915 73.2439 39.9697 73.1413 39.9267C73.0369 39.8868 72.942 39.8253 72.863 39.7463C72.7076 39.5806 72.6211 39.3618 72.6213 39.1346V35.8131C72.6208 35.7018 72.6426 35.5916 72.6856 35.4889C72.7232 35.3841 72.7838 35.289 72.863 35.2106C72.9436 35.1335 73.038 35.0723 73.1413 35.0301C73.2433 34.9848 73.3538 34.9618 73.4655 34.9629H76.3251C76.3603 34.9629 76.3941 34.9766 76.4192 35.0012C76.4444 35.0258 76.4589 35.0592 76.4597 35.0944V36.0456C76.4606 36.0807 76.4476 36.1148 76.4236 36.1406C76.3995 36.1663 76.3664 36.1816 76.3313 36.1832H74.0221C74.0038 36.1834 73.9857 36.1874 73.9689 36.1947C73.9521 36.2021 73.9369 36.2127 73.9243 36.226Z" fill="#242425"/>
<path d="M80.4448 37.0854C80.4388 37.0922 80.4355 37.1009 80.4355 37.1099C80.4355 37.1189 80.4388 37.1276 80.4448 37.1344L82.1086 39.887C82.1178 39.8988 82.1228 39.9133 82.1228 39.9283C82.1228 39.9432 82.1178 39.9578 82.1086 39.9696C82.1 39.9815 82.0884 39.9908 82.0749 39.9968C82.0615 40.0027 82.0467 40.0049 82.0322 40.0032H80.8394C80.7992 40.0028 80.76 39.9912 80.7262 39.9696C80.69 39.9513 80.6602 39.9225 80.6406 39.887L79.567 37.9326C79.567 37.9051 79.5395 37.9051 79.5303 37.9326L78.937 38.5841C78.9092 38.6138 78.8883 38.6493 78.8758 38.6881C78.8601 38.727 78.8518 38.7685 78.8514 38.8104V39.8717C78.855 39.9031 78.8466 39.9348 78.8279 39.9603C78.8092 39.9859 78.7815 40.0034 78.7504 40.0093H77.7473C77.716 40.0137 77.6844 40.0055 77.6591 39.9866C77.6339 39.9677 77.6172 39.9396 77.6127 39.9084C77.6096 39.8964 77.6096 39.8837 77.6127 39.8717V35.1066C77.6083 35.0754 77.6165 35.0437 77.6354 35.0185C77.6543 34.9933 77.6824 34.9766 77.7136 34.972H78.7382C78.7694 34.9677 78.8011 34.9758 78.8263 34.9947C78.8515 35.0137 78.8682 35.0418 78.8728 35.073C78.8759 35.084 78.8759 35.0956 78.8728 35.1066V37.2475L80.7231 35.0821C80.7442 35.0499 80.7712 35.0218 80.8027 34.9996C80.8409 34.9814 80.8827 34.972 80.925 34.972H82.1147C82.1545 34.972 82.1759 34.972 82.1851 34.9996C82.1943 35.0271 82.1851 35.0454 82.1606 35.073L80.4448 37.0854Z" fill="#242425"/>
<path d="M84.3137 39.8533C84.3163 39.8686 84.3158 39.8843 84.3123 39.8994C84.3088 39.9145 84.3023 39.9287 84.2931 39.9413C84.284 39.9538 84.2725 39.9644 84.2592 39.9724C84.2459 39.9804 84.2312 39.9857 84.2158 39.9879H83.1974C83.1819 39.9905 83.1661 39.9901 83.1508 39.9866C83.1355 39.9831 83.121 39.9766 83.1083 39.9675C83.0955 39.9584 83.0846 39.9469 83.0763 39.9336C83.068 39.9203 83.0623 39.9055 83.0597 39.89V35.1066C83.0554 35.0754 83.0635 35.0437 83.0825 35.0185C83.1014 34.9933 83.1295 34.9766 83.1607 34.972H84.1853C84.2165 34.9677 84.2482 34.9758 84.2734 34.9947C84.2986 35.0137 84.3153 35.0418 84.3198 35.073C84.323 35.084 84.323 35.0956 84.3198 35.1066L84.3137 39.8533Z" fill="#242425"/>
<path d="M89.1309 35.0393C89.3313 35.1241 89.4913 35.283 89.5774 35.4828C89.6216 35.5851 89.6435 35.6956 89.6417 35.807V39.8503C89.6425 39.8677 89.6398 39.885 89.6337 39.9013C89.6276 39.9176 89.6183 39.9325 89.6063 39.9451C89.5943 39.9577 89.5798 39.9677 89.5638 39.9745C89.5478 39.9814 89.5306 39.9849 89.5132 39.9849H88.5223C88.5047 39.9861 88.4872 39.9835 88.4708 39.9771C88.4544 39.9708 88.4396 39.9609 88.4275 39.9482C88.4034 39.9213 88.3903 39.8864 88.3908 39.8503V36.3178C88.3921 36.3 88.3892 36.2821 88.3823 36.2656C88.3754 36.2491 88.3646 36.2345 88.351 36.223C88.3252 36.1991 88.2913 36.186 88.2562 36.1863H86.8371C86.801 36.1858 86.766 36.1989 86.7392 36.223C86.7261 36.2349 86.7157 36.2496 86.7089 36.266C86.702 36.2824 86.6988 36.3 86.6994 36.3178V39.8534C86.7038 39.8846 86.6956 39.9162 86.6767 39.9415C86.6578 39.9667 86.6297 39.9834 86.5985 39.9879H85.5739C85.5432 39.9924 85.5119 39.9846 85.4867 39.9663C85.4616 39.9481 85.4446 39.9207 85.4393 39.8901C85.4362 39.878 85.4362 39.8654 85.4393 39.8534V35.1066C85.435 35.0754 85.4431 35.0437 85.4621 35.0185C85.481 34.9933 85.5091 34.9766 85.5403 34.9721H88.8159C88.9245 34.9714 89.032 34.9943 89.1309 35.0393Z" fill="#242425"/>
<path d="M94.945 37.2903C94.9581 37.3029 94.9685 37.3181 94.9754 37.335C94.9822 37.3519 94.9854 37.37 94.9847 37.3882V39.156C94.9844 39.2678 94.9604 39.3783 94.9144 39.4802C94.8737 39.5835 94.8135 39.678 94.737 39.7585C94.6585 39.8382 94.5635 39.8998 94.4587 39.939C94.356 39.9819 94.2457 40.0038 94.1345 40.0032H91.5959C91.4847 40.0032 91.3746 39.9814 91.2717 39.939C91.1202 39.8726 90.9917 39.7628 90.9024 39.6234C90.8131 39.4841 90.7671 39.3215 90.7702 39.156V35.8253C90.7712 35.7084 90.7962 35.5928 90.8436 35.4859C90.8817 35.3821 90.9422 35.2882 91.0209 35.2106C91.1016 35.1335 91.196 35.0723 91.2993 35.0301C91.4013 34.9848 91.5118 34.9618 91.6235 34.9629H94.5841C94.6197 34.9629 94.654 34.977 94.6792 35.0023C94.7045 35.0275 94.7186 35.0617 94.7186 35.0974V36.0456C94.7186 36.0812 94.7045 36.1155 94.6792 36.1407C94.654 36.166 94.6197 36.1801 94.5841 36.1801H92.1801C92.145 36.1798 92.1111 36.1929 92.0853 36.2168C92.0717 36.2284 92.0609 36.243 92.054 36.2595C92.0471 36.2759 92.0442 36.2938 92.0455 36.3116V38.633C92.0442 38.6508 92.0471 38.6687 92.054 38.6852C92.0609 38.7017 92.0717 38.7163 92.0853 38.7278C92.0978 38.7398 92.1127 38.749 92.1291 38.7548C92.1454 38.7606 92.1628 38.7629 92.1801 38.7615H93.5839C93.6 38.7623 93.6161 38.7599 93.6312 38.7545C93.6464 38.7491 93.6603 38.7408 93.6723 38.73C93.6842 38.7192 93.6939 38.7062 93.7008 38.6916C93.7077 38.6771 93.7116 38.6613 93.7124 38.6452V37.379C93.7116 37.3617 93.7143 37.3443 93.7204 37.328C93.7264 37.3117 93.7358 37.2968 93.7478 37.2842C93.7598 37.2716 93.7742 37.2616 93.7902 37.2548C93.8062 37.248 93.8234 37.2445 93.8408 37.2445H94.844C94.8632 37.2443 94.8821 37.2483 94.8996 37.2563C94.917 37.2642 94.9325 37.2758 94.945 37.2903Z" fill="#242425"/>
<path d="M30.2402 0.438981C31.5001 0.975951 32.5031 1.98003 33.0387 3.24053C33.3232 3.88406 33.4701 4.57995 33.4699 5.28358V31.6047C33.4716 31.8296 33.384 32.0461 33.2263 32.2066C33.0687 32.3671 32.8538 32.4586 32.6289 32.461H26.3101C26.1997 32.4655 26.0898 32.4453 25.9882 32.4019C25.8866 32.3585 25.796 32.2931 25.7229 32.2102C25.5703 32.0438 25.489 31.8242 25.4965 31.5986V7.69058H20.4348V31.6138C20.4407 31.8392 20.3597 32.0583 20.2085 32.2255C20.1339 32.3073 20.0425 32.372 19.9407 32.4152C19.8388 32.4585 19.7288 32.4794 19.6182 32.4763H13.9142C13.8025 32.4779 13.6916 32.4576 13.5878 32.4163C13.4841 32.3751 13.3894 32.3138 13.3093 32.236C13.2292 32.1582 13.1653 32.0653 13.1211 31.9628C13.0769 31.8602 13.0533 31.75 13.0517 31.6383V7.69058H7.98076V31.6138C7.99714 31.7308 7.98609 31.85 7.94849 31.9619C7.91089 32.0739 7.84776 32.1755 7.7641 32.2589C7.68045 32.3423 7.57855 32.405 7.46646 32.4422C7.35438 32.4794 7.23517 32.4901 7.11827 32.4733H0.869843C0.752944 32.4901 0.633741 32.4794 0.521654 32.4422C0.409567 32.405 0.307669 32.3423 0.224012 32.2589C0.140355 32.1755 0.0772315 32.0739 0.0396304 31.9619C0.00202925 31.85 -0.00901915 31.7308 0.0073583 31.6138V0.867165C-0.00901915 0.750206 0.00202925 0.631042 0.0396304 0.519088C0.0772315 0.407134 0.140355 0.30546 0.224012 0.222099C0.307669 0.138739 0.409567 0.0759768 0.521654 0.0387736C0.633741 0.0015704 0.752944 -0.00905461 0.869843 0.00773822H28.1788C28.8887 0.00454223 29.5912 0.151505 30.2402 0.438981Z" fill="#E73427"/>
<path d="M60.9289 24.5916C61.0429 24.5893 61.1561 24.6106 61.2614 24.6543C61.3667 24.698 61.4618 24.7631 61.5406 24.8455C61.6994 25.015 61.7851 25.2402 61.7791 25.4725V31.5894C61.783 31.8167 61.6973 32.0364 61.5406 32.2011C61.4623 32.2843 61.3674 32.3502 61.262 32.3945C61.1566 32.4387 61.0431 32.4604 60.9289 32.458H39.3668C38.7551 32.458 38.4492 32.1521 38.4492 31.5772V0.888587C38.4492 0.301363 38.7551 0.00775146 39.3668 0.00775146H45.9853C46.597 0.00775146 46.9028 0.313597 46.9028 0.888587V23.7567C46.8993 23.8731 46.9226 23.9888 46.9708 24.0949C47.0191 24.2009 47.091 24.2945 47.1811 24.3684C47.3591 24.525 47.5894 24.6091 47.8265 24.6039L60.9289 24.5916Z" fill="#1D539F"/>
<path d="M94.0672 0.00772899C94.1879 0.00438907 94.3081 0.0254171 94.4206 0.0695576C94.533 0.113698 94.6354 0.180046 94.7217 0.264639C94.8094 0.343846 94.8795 0.440581 94.9274 0.548585C94.9754 0.656589 95.0001 0.773456 95 0.891623V31.6842C95.0001 31.8023 94.9754 31.9192 94.9274 32.0272C94.8795 32.1352 94.8094 32.232 94.7217 32.3112C94.6354 32.3958 94.533 32.4621 94.4206 32.5062C94.3081 32.5504 94.1879 32.5714 94.0672 32.5681H87.363C87.2428 32.5712 87.1231 32.55 87.0112 32.5059C86.8993 32.4617 86.7974 32.3955 86.7116 32.3112C86.6228 32.2328 86.552 32.1363 86.504 32.0281C86.4559 31.9199 86.4318 31.8026 86.4333 31.6842V20.9398C86.4384 20.8266 86.4195 20.7136 86.3778 20.6081C86.3362 20.5027 86.2728 20.4073 86.1917 20.3281C86.1079 20.2496 86.0093 20.1886 85.9016 20.1487C85.7939 20.1088 85.6794 20.0907 85.5647 20.0957H76.163C75.9243 20.0881 75.6915 20.1711 75.5115 20.3281C75.4216 20.4022 75.3498 20.4957 75.3016 20.6018C75.2533 20.7078 75.2299 20.8234 75.2332 20.9398V31.6842C75.2332 32.2714 74.9274 32.5681 74.3157 32.5681H67.6605C67.0488 32.5681 66.7429 32.2622 66.7429 31.6842V0.891623C66.7429 0.301341 67.0488 0.00772899 67.6605 0.00772899H74.3279C74.9396 0.00772899 75.2454 0.313575 75.2454 0.891623V11.324C75.2454 11.9112 75.5513 12.2049 76.163 12.2049H85.5861C85.703 12.2089 85.8195 12.1884 85.928 12.1446C86.0365 12.1009 86.1346 12.035 86.2161 11.951C86.3713 11.7851 86.4576 11.5665 86.4577 11.3393V0.891623C86.4563 0.773538 86.4801 0.656509 86.5276 0.548377C86.5751 0.440245 86.6451 0.343506 86.733 0.264639C86.9009 0.0992209 87.1274 0.00687419 87.363 0.00772899H94.0672Z" fill="#F8B92A"/>
</svg>
